<svg width="15" height="20" viewBox="0 0 15 20" fill="none" xmlns="http://www.w3.org/2000/svg">
<path fill-rule="evenodd" clip-rule="evenodd" d="M7.5001 15C8.53135 15 9.3751 14.1562 9.3751 13.125C9.3751 12.0937 8.53135 11.25 7.5001 11.25C6.46885 11.25 5.6251 12.0937 5.6251 13.125C5.6251 14.1562 6.46885 15 7.5001 15ZM13.125 6.5625H12.1875V4.6875C12.1875 2.1 10.0875 0 7.5 0C4.9125 0 2.8125 2.1 2.8125 4.6875H4.59375C4.59375 3.08437 5.89687 1.78125 7.5 1.78125C9.10312 1.78125 10.4062 3.08437 10.4062 4.6875V6.5625H1.875C0.84375 6.5625 0 7.40625 0 8.4375V17.8125C0 18.8438 0.84375 19.6875 1.875 19.6875H13.125C14.1562 19.6875 15 18.8438 15 17.8125V8.4375C15 7.40625 14.1562 6.5625 13.125 6.5625Z" fill="#AD9C88"/>
</svg>
