<svg width="20" height="20" viewBox="0 0 20 20" fill="none" xmlns="http://www.w3.org/2000/svg">
<g clip-path="url(#clip0)">
<path d="M16.5537 1.36418L14.1862 0L11.8188 1.36418L9.45128 0L7.08382 1.36418L5.30859 0.341249V16.4149H15.8754V18.7732C15.8754 19.4496 16.4257 20 17.1022 20C17.7786 20 18.329 19.4496 18.329 18.7732V0.341249L16.5537 1.36418ZM6.75054 10.7059V9.52143H11.8188V10.7059H6.75054ZM16.887 8.11967H6.75054V6.93522H16.887V8.11967ZM16.887 5.53347H6.75054V4.34902H16.887V5.53347Z" fill="white"/>
<path d="M14.6903 18.7733V17.5994H1.66992V18.7733C1.66992 19.4497 2.22027 20.0001 2.89672 20.0001H15.0263C14.8129 19.6405 14.6903 19.2209 14.6903 18.7733Z" fill="white"/>
</g>
<defs>
<clipPath id="clip0">
<rect width="20" height="20" fill="white"/>
</clipPath>
</defs>
</svg>
